<mxfile host="app.diagrams.net" modified="2024-01-24T11:17:56.982Z" agent="Mozilla/5.0 (Windows NT 10.0; Win64; x64) AppleWebKit/537.36 (KHTML, like Gecko) Chrome/120.0.0.0 Safari/537.36" version="23.0.0" etag="qLXsMGStE5K_JbogAiTX" type="github">
  <diagram name="Page-1" id="utv1U7GI2MgppuWscE9K">
    <mxGraphModel>
      <root>
        <mxCell id="0" />
        <mxCell id="1" parent="0" />
      </root>
    </mxGraphModel>
  </diagram>
</mxfile>
